<?xml version="1.0" encoding="utf-8"?><svg xmlns="http://www.w3.org/2000/svg" xmlns:xlink="http://www.w3.org/1999/xlink"><symbol viewBox="0 0 23 23" id="user-enter" xmlns="http://www.w3.org/2000/svg">
    <g clip-path="url(#aclip0_1_179)">
        <path d="M15.2499 10.75H0.75C0.335999 10.75 0 11.086 0 11.5C0 11.914 0.335999 12.25 0.75 12.25H15.2499C15.6639 12.25 15.9999 11.914 15.9999 11.5C15.9999 11.086 15.6639 10.75 15.2499 10.75Z"/>
        <path d="M11.2501 6.75006C11.058 6.75006 10.8661 6.82294 10.72 6.96997C10.427 7.26294 10.427 7.73791 10.72 8.03107L14.19 11.5009L10.72 14.9709C10.427 15.2639 10.427 15.7391 10.72 16.032C11.0131 16.325 11.4881 16.325 11.7811 16.032L15.781 12.0319C16.074 11.739 16.074 11.264 15.781 10.971L11.7811 6.97107C11.634 6.82294 11.4421 6.75006 11.2501 6.75006Z"/>
        <path d="M12 0.499937C7.4489 0.499937 3.43101 3.23791 1.76201 7.47607C1.61003 7.86005 1.79991 8.29602 2.18498 8.448C2.56895 8.59796 3.00602 8.41101 3.158 8.02392C4.59904 4.36493 8.06999 1.99994 12 1.99994C17.2379 1.99994 21.5 6.26208 21.5 11.5C21.5 16.7379 17.2379 21.0001 12 21.0001C8.06999 21.0001 4.59904 18.6351 3.158 14.9761C3.00493 14.589 2.56895 14.402 2.18498 14.552C1.79991 14.704 1.61003 15.14 1.76201 15.5239C3.43101 19.7621 7.4489 22.5001 12 22.5001C18.065 22.5001 23 17.565 23 11.5C23 5.435 18.065 0.499937 12 0.499937Z"/>
    </g>
    <defs>
        <clipPath id="aclip0_1_179">
            <rect width="23" height="23" transform="matrix(1 0 0 -1 0 23)"/>
        </clipPath>
    </defs>
</symbol></svg>