<svg width="86" height="86" viewBox="0 0 86 86" fill="none" xmlns="http://www.w3.org/2000/svg">
<path d="M69.1073 38.6231L60.538 47.1893L56.8215 43.4483C56.5332 43.1604 56.1422 42.9988 55.7347 42.9991C55.3272 42.9994 54.9365 43.1615 54.6485 43.4499C54.3605 43.7382 54.1989 44.1292 54.1992 44.5367C54.1995 44.9442 54.3617 45.335 54.65 45.6229L59.4753 50.4481C59.7632 50.736 60.1538 50.8978 60.561 50.8978C60.9682 50.8978 61.3588 50.736 61.6468 50.4481L71.3033 40.7946C71.45 40.653 71.567 40.4835 71.6475 40.2961C71.728 40.1088 71.7703 39.9073 71.7721 39.7034C71.7739 39.4994 71.735 39.2972 71.6578 39.1085C71.5806 38.9198 71.4666 38.7483 71.3224 38.6041C71.1782 38.4599 71.0067 38.3459 70.818 38.2687C70.6292 38.1914 70.427 38.1526 70.2231 38.1544C70.0192 38.1561 69.8177 38.1985 69.6303 38.279C69.4429 38.3595 69.2735 38.4765 69.1318 38.6231H69.1073Z" fill="#843546"/>
<path d="M81.3929 44.5358C81.3848 40.1849 79.8392 35.977 77.029 32.6554C74.2189 29.3338 70.3251 27.1124 66.0358 26.3836V18.4286C66.0361 18.2268 65.9967 18.0269 65.9197 17.8403C65.8428 17.6538 65.7298 17.4842 65.5873 17.3413L53.3016 5.05561C53.1587 4.91309 52.9892 4.80013 52.8026 4.72318C52.616 4.64624 52.4161 4.60682 52.2143 4.60718H15.3572C14.9499 4.60718 14.5593 4.76898 14.2713 5.05698C13.9833 5.34498 13.8215 5.7356 13.8215 6.14289V13.8215H6.14289C5.7356 13.8215 5.34498 13.9833 5.05698 14.2713C4.76898 14.5593 4.60718 14.9499 4.60718 15.3572V79.8572C4.60718 80.2645 4.76898 80.6551 5.05698 80.9431C5.34498 81.2311 5.7356 81.3929 6.14289 81.3929H58.3572C58.7645 81.3929 59.1551 81.2311 59.4431 80.9431C59.7311 80.6551 59.8929 80.2645 59.8929 79.8572V72.1786H64.5C64.9073 72.1786 65.298 72.0168 65.586 71.7288C65.874 71.4408 66.0358 71.0502 66.0358 70.6429V62.6879C70.3251 61.9591 74.2189 59.7377 77.029 56.4161C79.8392 53.0945 81.3848 48.8866 81.3929 44.5358ZM53.75 9.85011L60.7928 16.8929H53.75V9.85011ZM56.8215 78.3215H7.67861V16.8929H13.8215V70.6429C13.8215 71.0502 13.9833 71.4408 14.2713 71.7288C14.5593 72.0168 14.9499 72.1786 15.3572 72.1786H56.8215V78.3215ZM62.9643 69.1072H16.8929V7.67861H50.6786V18.4286C50.6786 18.8359 50.8404 19.2265 51.1284 19.5145C51.4164 19.8025 51.807 19.9643 52.2143 19.9643H62.9643V26.1072C58.0768 26.1072 53.3894 28.0488 49.9334 31.5048C46.4773 34.9608 44.5358 39.6482 44.5358 44.5358C44.5358 49.4233 46.4773 54.1107 49.9334 57.5667C53.3894 61.0228 58.0768 62.9643 62.9643 62.9643V69.1072ZM62.9643 59.8929C59.927 59.8929 56.9578 58.9922 54.4324 57.3048C51.9069 55.6173 49.9385 53.2188 48.7762 50.4127C47.6138 47.6065 47.3097 44.5187 47.9023 41.5397C48.4948 38.5607 49.9574 35.8243 52.1052 33.6766C54.2529 31.5289 56.9893 30.0663 59.9683 29.4737C62.9473 28.8811 66.0351 29.1853 68.8412 30.3476C71.6474 31.5099 74.0459 33.4783 75.7333 36.0038C77.4208 38.5293 78.3215 41.4984 78.3215 44.5358C78.3166 48.6072 76.697 52.5105 73.8181 55.3895C70.9391 58.2685 67.0358 59.888 62.9643 59.8929Z" fill="#843546"/>
<path d="M32.2501 41.9127L27.4955 46.6857L25.6527 44.8428C25.3647 44.5545 24.974 44.3923 24.5665 44.392C24.1589 44.3917 23.768 44.5533 23.4796 44.8413C23.1913 45.1293 23.0291 45.52 23.0288 45.9275C23.0285 46.335 23.1901 46.726 23.4781 47.0143L26.4052 49.9383C26.6932 50.2262 27.0837 50.388 27.4909 50.388C27.8981 50.388 28.2887 50.2262 28.5767 49.9383L34.4277 44.1026C34.7161 43.8147 34.8783 43.4239 34.8786 43.0164C34.8788 42.6089 34.7172 42.2179 34.4293 41.9296C34.1413 41.6412 33.7506 41.479 33.3431 41.4788C32.9355 41.4785 32.5446 41.6401 32.2562 41.928L32.2501 41.9127Z" fill="#843546"/>
<path d="M32.2501 54.1986L27.4955 58.9716L25.6527 57.1287C25.5101 56.9859 25.3408 56.8726 25.1544 56.7953C24.968 56.7179 24.7682 56.678 24.5665 56.6779C24.3647 56.6778 24.1648 56.7174 23.9784 56.7944C23.7919 56.8715 23.6224 56.9846 23.4796 57.1272C23.3368 57.2698 23.2235 57.4391 23.1462 57.6254C23.0688 57.8118 23.029 58.0116 23.0288 58.2134C23.0287 58.4152 23.0683 58.615 23.1454 58.8015C23.2224 58.988 23.3355 59.1574 23.4781 59.3002L26.4052 62.2242C26.6932 62.5121 27.0837 62.6739 27.4909 62.6739C27.8981 62.6739 28.2887 62.5121 28.5767 62.2242L34.4277 56.3885C34.7161 56.1005 34.8783 55.7098 34.8786 55.3023C34.8788 54.8948 34.7172 54.5038 34.4293 54.2155C34.1413 53.9271 33.7506 53.7649 33.3431 53.7646C32.9355 53.7644 32.5446 53.926 32.2562 54.2139L32.2501 54.1986Z" fill="#843546"/>
<path d="M24.5714 16.893H42.9999C43.4072 16.893 43.7978 16.7312 44.0858 16.4432C44.3738 16.1552 44.5356 15.7645 44.5356 15.3572C44.5356 14.95 44.3738 14.5593 44.0858 14.2713C43.7978 13.9833 43.4072 13.8215 42.9999 13.8215H24.5714C24.1641 13.8215 23.7734 13.9833 23.4854 14.2713C23.1974 14.5593 23.0356 14.95 23.0356 15.3572C23.0356 15.7645 23.1974 16.1552 23.4854 16.4432C23.7734 16.7312 24.1641 16.893 24.5714 16.893Z" fill="#843546"/>
<path d="M42.9999 23.0356H24.5714C24.1641 23.0356 23.7734 23.1974 23.4854 23.4854C23.1974 23.7734 23.0356 24.1641 23.0356 24.5714C23.0356 24.9787 23.1974 25.3693 23.4854 25.6573C23.7734 25.9453 24.1641 26.1071 24.5714 26.1071H42.9999C43.4072 26.1071 43.7978 25.9453 44.0858 25.6573C44.3738 25.3693 44.5356 24.9787 44.5356 24.5714C44.5356 24.1641 44.3738 23.7734 44.0858 23.4854C43.7978 23.1974 43.4072 23.0356 42.9999 23.0356Z" fill="#843546"/>
<path d="M33.7856 32.25H24.5714C24.1641 32.25 23.7734 32.4118 23.4854 32.6998C23.1974 32.9878 23.0356 33.3784 23.0356 33.7857C23.0356 34.193 23.1974 34.5836 23.4854 34.8716C23.7734 35.1596 24.1641 35.3214 24.5714 35.3214H33.7856C34.1929 35.3214 34.5836 35.1596 34.8716 34.8716C35.1596 34.5836 35.3214 34.193 35.3214 33.7857C35.3214 33.3784 35.1596 32.9878 34.8716 32.6998C34.5836 32.4118 34.1929 32.25 33.7856 32.25Z" fill="#843546"/>
</svg>
