<svg width="70" height="70" viewBox="0 0 70 70" fill="none" xmlns="http://www.w3.org/2000/svg">
<g clip-path="url(#clip0_10_818)">
<path d="M61.9979 42.5529C62.6386 43.1937 62.6386 44.2323 61.9979 44.8731L52.7968 54.0743C52.4891 54.3819 52.0717 54.5549 51.6367 54.5549C51.2017 54.5549 50.7843 54.382 50.4766 54.0743L44.8838 48.4814C44.2431 47.8406 44.2431 46.8019 44.8838 46.1611C45.5246 45.5205 46.5633 45.5205 47.204 46.1611L51.6367 50.594L59.6778 42.5529C60.3185 41.9123 61.3573 41.9122 61.9979 42.5529ZM69.9999 48.3135C69.9999 57.4443 62.5716 64.8726 53.4408 64.8726C51.7651 64.8726 50.1471 64.6216 48.6215 64.1565C41.6971 67.5619 34.6829 69.2808 27.7297 69.2808C26.7402 69.2808 25.753 69.2461 24.7664 69.1765C16.8222 68.6156 8.79739 65.7778 0.914868 60.7418C0.49022 60.4705 0.213774 60.019 0.165239 59.5173C-0.501675 52.6305 0.897505 45.9118 4.10534 40.5987C7.15458 35.5481 11.6949 31.8751 17.3357 29.8614C15.1268 27.2361 13.5728 24.1582 12.8082 20.854C11.9308 17.0626 12.1771 13.1669 13.5013 9.8846C15.8131 4.15526 21.0155 0.814268 27.7749 0.718291L27.7982 0.718018L27.8214 0.718291C34.5808 0.814404 39.7832 4.1554 42.0948 9.88474C43.4192 13.1669 43.6653 17.0626 42.788 20.854C42.0233 24.1584 40.4691 27.2367 38.2597 29.8622C40.919 30.8106 43.3351 32.1283 45.4762 33.7994C47.8407 32.4968 50.5554 31.7544 53.4406 31.7544C62.5716 31.7543 69.9999 39.1827 69.9999 48.3135ZM21.0075 29.0132C23.2978 31.2846 25.5825 32.4364 27.7982 32.4364C30.0138 32.4364 32.2985 31.2846 34.5887 29.0132C39.5029 24.1397 41.3384 16.7786 39.052 11.1122C37.235 6.60896 33.239 4.08349 27.7982 3.99927C22.3572 4.08349 18.3611 6.60896 16.5441 11.1122C14.2579 16.7788 16.0932 24.1399 21.0075 29.0132ZM44.6826 62.3605C40.0018 59.4316 36.8816 54.2304 36.8816 48.3135C36.8816 43.3077 39.1146 38.8137 42.6365 35.7748C40.5772 34.3206 38.243 33.2143 35.6675 32.4725C33.1177 34.6266 30.4765 35.7177 27.7982 35.7177C25.1198 35.7177 22.4787 34.6266 19.9288 32.4726C8.85044 35.6728 2.43053 45.7137 3.36336 58.4068C17.2435 67.0414 30.7949 68.3425 44.6826 62.3605ZM66.7187 48.3135C66.7187 40.9921 60.7623 35.0355 53.4408 35.0355C46.1194 35.0355 40.1629 40.9919 40.1629 48.3135C40.1629 55.6351 46.1193 61.5914 53.4408 61.5914C60.7624 61.5914 66.7187 55.6349 66.7187 48.3135Z" fill="#843546"/>
</g>
<defs>
<clipPath id="clip0_10_818">
<rect width="70" height="70" fill="white"/>
</clipPath>
</defs>
</svg>
