<svg width="76" height="76" viewBox="0 0 76 76" fill="none" xmlns="http://www.w3.org/2000/svg">
<path d="M20.6365 29.7705C19.4561 29.7705 18.499 30.7276 18.499 31.908C18.499 33.0884 19.4561 34.0455 20.6365 34.0455H43.5553C44.7357 34.0455 45.6928 33.0884 45.6928 31.908C45.6928 30.7276 44.7357 29.7705 43.5553 29.7705H20.6365Z" fill="#843546"/>
<path d="M30.9416 41.9043H20.6365C19.4561 41.9043 18.499 42.8614 18.499 44.0418C18.499 45.2222 19.4561 46.1793 20.6365 46.1793H30.9416C32.122 46.1793 33.0791 45.2222 33.0791 44.0418C33.0791 42.8614 32.122 41.9043 30.9416 41.9043Z" fill="#843546"/>
<path d="M30.6257 69.1123H14.3569C10.8585 69.1123 8.01566 66.2575 8.01566 62.7473V19.4511C8.01566 15.9408 10.8585 13.0861 14.3569 13.0861H18.772V13.6228C18.772 16.7412 21.3085 19.2753 24.4269 19.2753H44.8519C47.9703 19.2753 50.5068 16.7412 50.5068 13.6228V13.0861H54.9005C58.4559 13.0861 61.2394 15.8814 61.2394 19.4511V31.6348C61.2394 32.8152 62.1965 33.7723 63.3769 33.7723C64.5573 33.7723 65.5144 32.8152 65.5144 31.6348V19.4511C65.5144 13.5848 60.7525 8.81105 54.8982 8.81105H50.5044V8.2648C50.5044 5.14643 47.9679 2.6123 44.8495 2.6123H24.4245C21.3062 2.6123 18.7697 5.14643 18.7697 8.2648V8.81105H14.3569C8.50253 8.81105 3.73828 13.5848 3.73828 19.4511V62.7473C3.73828 68.6135 8.50253 73.3873 14.3569 73.3873H30.6257C31.806 73.3873 32.7632 72.4302 32.7632 71.2498C32.7632 70.0694 31.806 69.1123 30.6257 69.1123ZM23.0494 8.2648C23.0494 7.5048 23.6669 6.8873 24.4269 6.8873H44.8519C45.6119 6.8873 46.2294 7.5048 46.2294 8.2648V13.6204C46.2294 14.3804 45.6119 14.9979 44.8519 14.9979H24.4269C23.6669 14.9979 23.0494 14.3804 23.0494 13.6204V8.2648Z" fill="#843546"/>
<path d="M69.9913 41.225C67.0653 38.2966 61.9567 38.2943 59.0283 41.225L40.0782 60.1751C39.4678 60.7855 39.0688 61.5598 38.9239 62.4124L37.8837 68.5613C37.6628 69.8794 38.0974 71.2331 39.0427 72.176C39.8241 72.9574 40.8809 73.3849 41.9663 73.3849C42.1967 73.3849 42.4247 73.3659 42.6527 73.3279L48.7992 72.29C49.6518 72.1451 50.4261 71.7461 51.0364 71.1358L69.9866 52.1856C73.0099 49.1646 73.0099 44.2484 69.9913 41.225ZM48.0891 68.0768L42.1017 69.2714L43.1039 63.1985L56.6866 49.6159L61.6052 54.5345L48.0891 68.0768ZM66.9656 49.1623L64.6238 51.5088L59.7076 46.5925L62.0517 44.2484C62.7072 43.5929 63.5812 43.2295 64.5074 43.2295C65.4384 43.2295 66.3101 43.5905 66.9656 44.2484C68.3217 45.6045 68.3217 47.8061 66.9656 49.1623Z" fill="#843546"/>
</svg>
