<svg width="78" height="79" viewBox="0 0 78 79" fill="none" xmlns="http://www.w3.org/2000/svg">
<path d="M43.2852 7.14844C43.2852 9.67247 41.2389 11.7187 38.7148 11.7187M43.2852 7.14844C43.2852 4.62425 41.2389 2.57812 38.7148 2.57812M43.2852 7.14844H73.1446M38.7148 11.7187C36.1908 11.7187 34.1445 9.67247 34.1445 7.14844M38.7148 11.7187L38.715 58.4336M34.1445 7.14844C34.1445 4.62425 36.1908 2.57812 38.7148 2.57812M34.1445 7.14844H4.28516M38.7148 2.57812V1M47.8556 67.5742C47.8556 62.526 43.7632 58.4336 38.715 58.4336M47.8556 67.5742C52.9038 67.5742 56.9961 71.6666 56.9962 76.7148H20.4336C20.4336 71.6666 24.526 67.5742 29.5742 67.5742M47.8556 67.5742H29.5742M38.715 58.4336C33.6668 58.4336 29.5742 62.526 29.5742 67.5742M52.5781 34.5703L64.0039 7.14844L75.4297 34.5703M52.5781 34.5703C52.5781 39.6185 56.6705 43.7109 61.7188 43.7109H66.2891C71.3373 43.7109 75.4297 39.6185 75.4297 34.5703M52.5781 34.5703H75.4297M2 40H24.8516M24.8516 45.5H2M2 51H24.8516M13.4258 7.14844L2 34.5703H24.8516L13.4258 7.14844Z" stroke="#843546" stroke-width="4" stroke-miterlimit="10" stroke-linejoin="round"/>
<path d="M22.7148 54.5C22.7148 65 18.4615 67 13.2148 67C7.96814 67 3.71484 64.5 3.71484 54.5" stroke="#843546" stroke-width="4" stroke-miterlimit="10" stroke-linejoin="round"/>
</svg>
