<svg width="102" height="102" viewBox="0 0 102 102" fill="none" xmlns="http://www.w3.org/2000/svg">
<path d="M87.8629 42.1634H87.6104V35.9777C87.6104 16.1078 71.5028 0 51.6327 0C31.7625 0 15.655 16.1078 15.655 35.9777V42.1634H14.1402C8.5857 42.1634 4.29369 47.0865 4.29369 52.7674V68.547C4.15379 74.053 8.50403 78.6299 14.01 78.7698C14.0535 78.771 14.0967 78.7717 14.1402 78.7722H23.4817C24.8049 78.7101 25.8272 77.5868 25.7649 76.2636C25.7627 76.216 25.7591 76.1684 25.754 76.1211V45.1929C25.754 43.6781 24.8704 42.1631 23.4817 42.1631H20.7045V35.9775C20.7045 18.8964 34.5516 5.04927 51.6327 5.04927C68.7137 5.04927 82.5609 18.8964 82.5609 35.9775V42.1631H79.7836C78.395 42.1631 77.5114 43.6779 77.5114 45.1929V76.1211C77.3705 77.4382 78.324 78.6202 79.6411 78.7611C79.6884 78.7662 79.736 78.7698 79.7836 78.7719H82.687L82.4345 79.1506C78.6465 84.1849 72.7025 87.1334 66.4023 87.1035C65.0231 80.3406 58.4224 75.9761 51.6595 77.3555C45.8762 78.5349 41.7064 83.5999 41.6598 89.5021C41.7289 96.4247 47.3607 102 54.2836 102C57.7105 101.944 60.9771 100.538 63.3726 98.0861C64.9888 96.431 66.0479 94.3126 66.4023 92.0266C74.2919 92.0566 81.7323 88.3597 86.474 82.054L88.8726 78.5192C94.3008 78.1406 97.7092 74.7322 97.7092 69.8088V54.0291C97.7094 48.6015 93.6699 42.1634 87.8629 42.1634ZM20.7045 73.7227H14.1402C11.4219 73.6565 9.27192 71.3994 9.33812 68.6811C9.33933 68.6364 9.34102 68.5917 9.3432 68.5468V52.7671C9.3432 49.8637 11.363 47.2126 14.1402 47.2126H20.7045V73.7227ZM59.7119 94.5519C58.3129 96.0688 56.3473 96.9374 54.2838 96.9505C50.1766 96.8852 46.8436 93.6078 46.7095 89.5023C46.7078 85.3889 50.0411 82.053 54.1545 82.0513C58.268 82.0496 61.6039 85.3829 61.6056 89.4963C61.6056 89.4982 61.6056 89.5004 61.6056 89.5023C61.7107 91.3766 61.0235 93.2089 59.7119 94.5519ZM92.6599 69.8093C92.6599 73.2177 89.3776 73.7227 87.8629 73.7227H82.5609V47.2129H87.8629C90.6401 47.2129 92.6599 51.1262 92.6599 54.0296V69.8093Z" fill="#843546"/>
</svg>
