<svg width="102" height="102" viewBox="0 0 102 102" fill="none" xmlns="http://www.w3.org/2000/svg">
<path d="M7.74402 29.7255H23.5018C24.327 29.7255 24.996 29.0567 24.996 28.2313C24.996 27.406 24.327 26.7372 23.5018 26.7372H7.74402C6.91885 26.7372 6.24988 27.406 6.24988 28.2313C6.24988 29.0567 6.91866 29.7255 7.74402 29.7255Z" fill="#843546"/>
<path d="M22.9616 36.9187H16.7368C15.9117 36.9187 15.2427 37.5875 15.2427 38.4128C15.2427 39.2382 15.9117 39.907 16.7368 39.907H22.9616C23.7868 39.907 24.4557 39.2382 24.4557 38.4128C24.4557 37.5875 23.7868 36.9187 22.9616 36.9187Z" fill="#843546"/>
<path d="M1.49414 47.28H16.7368C17.5619 47.28 18.2309 46.6113 18.2309 45.7859C18.2309 44.9605 17.5619 44.2917 16.7368 44.2917H1.49414C0.668976 44.2917 0 44.9605 0 45.7859C0 46.6113 0.668976 47.28 1.49414 47.28Z" fill="#843546"/>
<path d="M24.996 73.7686C24.996 72.9432 24.327 72.2744 23.5018 72.2744H7.74402C6.91885 72.2744 6.24988 72.9432 6.24988 73.7686C6.24988 74.5939 6.91885 75.2627 7.74402 75.2627H23.5018C24.327 75.2627 24.996 74.5939 24.996 73.7686Z" fill="#843546"/>
<path d="M22.9616 62.0931H16.7368C15.9117 62.0931 15.2427 62.7619 15.2427 63.5873C15.2427 64.4126 15.9117 65.0814 16.7368 65.0814H22.9616C23.7868 65.0814 24.4557 64.4126 24.4557 63.5873C24.4557 62.7619 23.7868 62.0931 22.9616 62.0931Z" fill="#843546"/>
<path d="M18.2309 56.2142C18.2309 55.3889 17.5619 54.7201 16.7368 54.7201H1.49414C0.668976 54.7201 0 55.3889 0 56.2142C0 57.0396 0.668976 57.7084 1.49414 57.7084H16.7368C17.5619 57.7084 18.2309 57.0396 18.2309 56.2142Z" fill="#843546"/>
<path d="M63.6561 33.0365C64.4815 33.0365 65.1503 32.3677 65.1503 31.5424V29.2617C65.1503 28.4364 64.4815 27.7676 63.6561 27.7676C62.8308 27.7676 62.162 28.4364 62.162 29.2617V31.5424C62.162 32.3677 62.8308 33.0365 63.6561 33.0365Z" fill="#843546"/>
<path d="M80.084 34.572C79.5002 33.9887 78.5544 33.9887 77.9708 34.572L76.3582 36.1847C75.7747 36.7684 75.7747 37.7143 76.3582 38.2978C76.9421 38.8813 77.8878 38.8811 78.4713 38.2978L80.084 36.6851C80.6673 36.1016 80.6673 35.1557 80.084 34.572Z" fill="#843546"/>
<path d="M83.1139 49.5059C82.2885 49.5059 81.6198 50.1746 81.6198 51C81.6198 51.8254 82.2885 52.4941 83.1139 52.4941H85.3943C86.2197 52.4941 86.8885 51.8254 86.8885 51C86.8885 50.1746 86.2197 49.5059 85.3943 49.5059H83.1139Z" fill="#843546"/>
<path d="M78.4713 63.702C77.8876 63.1187 76.9417 63.1187 76.3582 63.702C75.7747 64.2857 75.7747 65.2316 76.3582 65.8151L77.9708 67.4278C78.5548 68.0113 79.5004 68.0111 80.084 67.4278C80.6675 66.8441 80.6675 65.8982 80.084 65.3147L78.4713 63.702Z" fill="#843546"/>
<path d="M62.162 70.4578V72.7382C62.162 73.5636 62.8308 74.2324 63.6561 74.2324C64.4815 74.2324 65.1503 73.5636 65.1503 72.7382V70.4578C65.1503 69.6324 64.4815 68.9636 63.6561 68.9636C62.8308 68.9636 62.162 69.6326 62.162 70.4578Z" fill="#843546"/>
<path d="M48.8408 63.702L47.2282 65.3147C46.6446 65.8984 46.6446 66.8443 47.2282 67.4278C47.8119 68.0113 48.7578 68.0111 49.3411 67.4278L50.9538 65.8151C51.5373 65.2314 51.5373 64.2855 50.9538 63.702C50.3704 63.1187 49.4243 63.1187 48.8408 63.702Z" fill="#843546"/>
<path d="M41.9178 49.5059C41.0927 49.5059 40.4237 50.1746 40.4237 51C40.4237 51.8254 41.0927 52.4941 41.9178 52.4941H44.1985C45.0237 52.4941 45.6926 51.8254 45.6926 51C45.6926 50.1746 45.0237 49.5059 44.1985 49.5059H41.9178Z" fill="#843546"/>
<path d="M50.954 36.1847L49.3413 34.572C48.7578 33.9887 47.8117 33.9887 47.2284 34.572C46.6449 35.1557 46.6449 36.1016 47.2284 36.6851L48.8411 38.2978C49.4248 38.8813 50.3707 38.8811 50.954 38.2978C51.5375 37.7143 51.5375 36.7684 50.954 36.1847Z" fill="#843546"/>
<path d="M71.6906 51C71.6906 50.1747 71.0218 49.5059 70.1965 49.5059H65.1503V38.4126C65.1503 37.5872 64.4815 36.9185 63.6561 36.9185C62.8308 36.9185 62.162 37.5872 62.162 38.4126V51C62.162 51.8254 62.8308 52.4942 63.6561 52.4942H70.1965C71.0216 52.4942 71.6906 51.8254 71.6906 51Z" fill="#843546"/>
<path d="M91.9874 50.7534C92.8112 50.7034 93.4383 49.9952 93.3883 49.1716C92.4378 33.4925 79.3779 21.2104 63.6559 21.2104C47.2299 21.2104 33.8663 34.574 33.8663 51.0002C33.8663 67.4262 47.2299 80.7898 63.6559 80.7898C78.372 80.7898 90.929 70.0077 93.1134 55.4577C93.2359 54.6417 92.6737 53.8809 91.8575 53.7584C91.0435 53.6363 90.2807 54.1979 90.1582 55.0143C88.1959 68.0858 76.9089 77.8017 63.6559 77.8017C48.8777 77.8017 36.8546 65.7787 36.8546 51.0004C36.8546 36.2222 48.8777 24.1989 63.6559 24.1989C77.8006 24.1989 89.5504 35.2478 90.4054 49.3529C90.4552 50.1761 91.1628 50.8012 91.9874 50.7534Z" fill="#843546"/>
<path d="M63.6559 12.6562C58.4003 12.6562 53.2511 13.7465 48.5117 15.7855H22.1493C21.3241 15.7855 20.6552 16.4543 20.6552 17.2797C20.6552 18.105 21.3241 18.7738 22.1493 18.7738H42.8906C40.0862 20.5787 37.5045 22.7558 35.2282 25.2691C34.6744 25.8805 34.721 26.8254 35.3326 27.3795C35.9444 27.9335 36.8889 27.8867 37.4431 27.2751C44.1373 19.8836 53.6916 15.6445 63.6559 15.6445C83.1511 15.6445 99.0117 31.5049 99.0117 51C99.0117 70.495 83.1513 86.3556 63.6559 86.3556C44.1608 86.3556 28.3004 70.4952 28.3004 51C28.3004 44.1732 30.2505 37.5472 33.9397 31.838C34.3875 31.1449 34.1887 30.2201 33.4956 29.7723C32.8025 29.3246 31.8777 29.523 31.4297 30.2163C27.4274 36.4096 25.3121 43.5965 25.3121 51C25.3121 64.5003 32.3258 76.392 42.9001 83.2262H22.1495C21.3243 83.2262 20.6554 83.895 20.6554 84.7204C20.6554 85.5457 21.3243 86.2145 22.1495 86.2145H48.4912C53.1449 88.2264 58.2722 89.3439 63.6561 89.3439C84.7988 89.3439 102 72.1429 102 51C102 29.8571 84.7988 12.6562 63.6559 12.6562Z" fill="#843546"/>
</svg>
