<svg width="82" height="82" viewBox="0 0 82 82" fill="none" xmlns="http://www.w3.org/2000/svg">
<path d="M77.5637 1.61755H4.43633C1.9901 1.61755 0 3.60749 0 6.05388V57.826C0 60.2722 1.9901 62.2623 4.43633 62.2623H11.5312C12.1948 62.2623 12.7324 61.7247 12.7324 61.0611C12.7324 60.3976 12.1948 59.86 11.5312 59.86H4.43633C3.31475 59.86 2.40234 58.9476 2.40234 57.826V6.05388C2.40234 4.93231 3.31475 4.0199 4.43633 4.0199H77.5637C78.6852 4.0199 79.5977 4.93231 79.5977 6.05388V57.826C79.5977 58.9476 78.6852 59.86 77.5637 59.86H17.1367C16.4732 59.86 15.9355 60.3976 15.9355 61.0611C15.9355 61.7247 16.4732 62.2623 17.1367 62.2623H30.0197C29.791 64.3719 28.8477 68.9418 24.9809 72.8024H20.9388C19.7412 72.8024 18.7669 73.7766 18.7669 74.9741V78.2108C18.7669 79.4085 19.7412 80.3827 20.9388 80.3827H50.816C51.4795 80.3827 52.0172 79.8451 52.0172 79.1815C52.0172 78.518 51.4795 77.9804 50.816 77.9804H21.1695V75.2049H60.8305V77.9804H56.4214C55.7579 77.9804 55.2203 78.518 55.2203 79.1815C55.2203 79.8451 55.7579 80.3827 56.4214 80.3827H61.0612C62.2588 80.3827 63.2331 79.4085 63.2331 78.2108V74.9741C63.2331 73.7766 62.2588 72.8024 61.0612 72.8024H57.0193C53.174 68.9609 52.2202 64.3769 51.9846 62.2623H77.5637C80.0099 62.2623 82 60.2722 82 57.826V6.05388C82 3.60749 80.0099 1.61755 77.5637 1.61755ZM53.8022 72.8022H28.1978C31.4572 68.7011 32.2481 64.3389 32.4366 62.2622H49.5632C49.7519 64.3391 50.5428 68.7011 53.8022 72.8022Z" fill="#843546"/>
<path d="M67.6323 52.2317H75.6209C76.2844 52.2317 76.822 51.6941 76.822 51.0306V7.99658C76.822 7.33305 76.2844 6.79541 75.6209 6.79541H6.37891C5.71538 6.79541 5.17773 7.33305 5.17773 7.99658V51.0306C5.17773 51.6941 5.71538 52.2317 6.37891 52.2317H62.0268C62.6903 52.2317 63.228 51.6941 63.228 51.0306C63.228 50.367 62.6903 49.8294 62.0268 49.8294H7.58008V9.19775H74.4197V49.8294H67.6323C66.9687 49.8294 66.4311 50.367 66.4311 51.0306C66.4311 51.6941 66.9687 52.2317 67.6323 52.2317Z" fill="#843546"/>
<path d="M20.1985 14.6293C20.1985 13.9657 19.6608 13.4281 18.9973 13.4281H11.5552C10.8916 13.4281 10.354 13.9657 10.354 14.6293V21.1005C10.354 21.7641 10.8916 22.3017 11.5552 22.3017H18.9973C19.6608 22.3017 20.1985 21.7641 20.1985 21.1005V14.6293ZM17.7961 19.8994H12.7563V15.8304H17.7961V19.8994Z" fill="#843546"/>
<path d="M25.4688 22.3018H45.5299C46.1934 22.3018 46.7311 21.7641 46.7311 21.1006C46.7311 20.4371 46.1934 19.8994 45.5299 19.8994H25.4688C24.8052 19.8994 24.2676 20.4371 24.2676 21.1006C24.2676 21.7641 24.8054 22.3018 25.4688 22.3018Z" fill="#843546"/>
<path d="M51.3542 13.4281H34.8523C34.1888 13.4281 33.6511 13.9657 33.6511 14.6293C33.6511 15.2928 34.1888 15.8304 34.8523 15.8304H51.3542C52.0177 15.8304 52.5553 15.2928 52.5553 14.6293C52.5553 13.9657 52.0177 13.4281 51.3542 13.4281Z" fill="#843546"/>
<path d="M25.4688 15.8304H29.1897C29.8532 15.8304 30.3908 15.2928 30.3908 14.6293C30.3908 13.9657 29.8532 13.4281 29.1897 13.4281H25.4688C24.8052 13.4281 24.2676 13.9657 24.2676 14.6293C24.2676 15.2928 24.8054 15.8304 25.4688 15.8304Z" fill="#843546"/>
<path d="M20.1985 26.2776C20.1985 25.6141 19.6608 25.0764 18.9973 25.0764H11.5552C10.8916 25.0764 10.354 25.6141 10.354 26.2776V32.7489C10.354 33.4124 10.8916 33.95 11.5552 33.95H18.9973C19.6608 33.95 20.1985 33.4124 20.1985 32.7489V26.2776ZM17.7961 31.5477H12.7563V27.4788H17.7961V31.5477Z" fill="#843546"/>
<path d="M25.4688 33.9501H45.5299C46.1934 33.9501 46.7311 33.4124 46.7311 32.7489C46.7311 32.0854 46.1934 31.5477 45.5299 31.5477H25.4688C24.8052 31.5477 24.2676 32.0854 24.2676 32.7489C24.2676 33.4124 24.8054 33.9501 25.4688 33.9501Z" fill="#843546"/>
<path d="M51.3542 25.0764H34.8523C34.1888 25.0764 33.6511 25.6141 33.6511 26.2776C33.6511 26.9411 34.1888 27.4788 34.8523 27.4788H51.3542C52.0177 27.4788 52.5553 26.9411 52.5553 26.2776C52.5553 25.6141 52.0177 25.0764 51.3542 25.0764Z" fill="#843546"/>
<path d="M25.4688 27.4788H29.1897C29.8532 27.4788 30.3908 26.9411 30.3908 26.2776C30.3908 25.6141 29.8532 25.0764 29.1897 25.0764H25.4688C24.8052 25.0764 24.2676 25.6141 24.2676 26.2776C24.2676 26.9411 24.8054 27.4788 25.4688 27.4788Z" fill="#843546"/>
<path d="M18.9973 36.725H11.5552C10.8916 36.725 10.354 37.2626 10.354 37.9261V44.3976C10.354 45.0611 10.8916 45.5988 11.5552 45.5988H18.9973C19.6608 45.5988 20.1985 45.0611 20.1985 44.3976V37.9261C20.1985 37.2626 19.6608 36.725 18.9973 36.725ZM17.7961 43.1964H12.7563V39.1273H17.7961V43.1964Z" fill="#843546"/>
<path d="M25.4688 45.5988H45.5299C46.1934 45.5988 46.7311 45.0611 46.7311 44.3976C46.7311 43.7341 46.1934 43.1964 45.5299 43.1964H25.4688C24.8052 43.1964 24.2676 43.7341 24.2676 44.3976C24.2676 45.0611 24.8054 45.5988 25.4688 45.5988Z" fill="#843546"/>
<path d="M52.5553 37.9261C52.5553 37.2626 52.0177 36.725 51.3542 36.725H34.8523C34.1888 36.725 33.6511 37.2626 33.6511 37.9261C33.6511 38.5897 34.1888 39.1273 34.8523 39.1273H51.3542C52.0177 39.1273 52.5553 38.5895 52.5553 37.9261Z" fill="#843546"/>
<path d="M25.4688 39.1273H29.1897C29.8532 39.1273 30.3908 38.5897 30.3908 37.9261C30.3908 37.2626 29.8532 36.725 29.1897 36.725H25.4688C24.8052 36.725 24.2676 37.2626 24.2676 37.9261C24.2676 38.5897 24.8054 39.1273 25.4688 39.1273Z" fill="#843546"/>
<path d="M71.6446 34.6044C71.6219 34.0942 71.2792 33.654 70.7899 33.5073L56.8765 29.3333C56.4529 29.2062 55.9945 29.3221 55.6819 29.6344C55.3696 29.9469 55.2538 30.4058 55.3808 30.829L59.5548 44.7425C59.7015 45.2317 60.1416 45.5745 60.6518 45.5972C60.6698 45.5982 60.6879 45.5985 60.7056 45.5985C61.1948 45.5985 61.6376 45.3009 61.8207 44.8434L64.412 38.3646L70.8908 35.7731C71.365 35.5836 71.6674 35.1147 71.6446 34.6044ZM63.0418 36.3253C62.7366 36.4475 62.4947 36.6892 62.3725 36.9946L60.8676 40.7576L58.3228 32.2754L66.805 34.8201L63.0418 36.3253Z" fill="#843546"/>
</svg>
