<svg width="82" height="82" viewBox="0 0 82 82" fill="none" xmlns="http://www.w3.org/2000/svg">
<g clip-path="url(#clip0_2_2268)">
<path d="M23.7864 65.5853C24.4943 65.5853 25.076 66.1484 25.076 66.8563C25.076 67.5642 24.4949 68.1465 23.7864 68.1465H3.75791C2.74188 68.1465 1.79759 67.7288 1.107 67.0382C0.417688 66.3662 0 65.4225 0 64.3873V3.75855C0 2.7233 0.417688 1.79695 1.107 1.10764C1.79759 0.417687 2.7233 0 3.75791 0H78.2222C79.2581 0 80.2018 0.417687 80.8924 1.10764C81.5644 1.79759 82 2.7233 82 3.75855V64.3873C82 65.4225 81.5644 66.3662 80.8924 67.0382C80.2018 67.7288 79.2581 68.1465 78.2222 68.1465H67.3829C66.675 68.1465 66.0939 67.5648 66.0939 66.8563C66.0939 66.1477 66.6743 65.5853 67.3829 65.5853H78.2222C78.5675 65.5853 78.8577 65.4398 79.0768 65.2227C79.2946 65.0049 79.4394 64.7153 79.4394 64.3873V13.9637H2.56058V64.3873C2.56058 64.7153 2.706 65.0049 2.92381 65.2227V65.24C3.14163 65.4591 3.43119 65.5853 3.75791 65.5853H23.7864ZM72.7577 5.70092C73.4656 5.70092 74.0287 6.26403 74.0287 6.97192C74.0287 7.67981 73.4656 8.2615 72.7577 8.2615H29.1613C28.4534 8.2615 27.8717 7.68045 27.8717 6.97192C27.8717 6.26339 28.4527 5.70092 29.1613 5.70092H72.7577ZM79.4401 11.4031V3.75855C79.4401 3.43183 79.2946 3.14098 79.0775 2.92317C78.8584 2.70536 78.5682 2.55994 78.2229 2.55994H3.75791C3.43119 2.55994 3.14163 2.70536 2.92381 2.92317C2.70536 3.14098 2.56058 3.43183 2.56058 3.75855V11.4031H79.4401Z" fill="#843546"/>
<path fill-rule="evenodd" clip-rule="evenodd" d="M7.6267 5.73743C8.31601 5.73743 8.86118 6.30054 8.86118 6.97255C8.86118 7.6625 8.31601 8.22561 7.6267 8.22561C6.9361 8.22561 6.39221 7.6625 6.39221 6.97255C6.39221 6.30054 6.9361 5.73743 7.6267 5.73743ZM18.4488 5.73743C19.1381 5.73743 19.6833 6.30054 19.6833 6.97255C19.6833 7.6625 19.1381 8.22561 18.4488 8.22561C17.7582 8.22561 17.1951 7.6625 17.1951 6.97255C17.1951 6.30054 17.7582 5.73743 18.4488 5.73743ZM13.0381 5.73743C13.7274 5.73743 14.2719 6.30054 14.2719 6.97255C14.2719 7.6625 13.7267 8.22561 13.0381 8.22561C12.3475 8.22561 11.7844 7.6625 11.7844 6.97255C11.7844 6.30054 12.3468 5.73743 13.0381 5.73743Z" fill="#843546"/>
<path d="M10.0412 19.8459H22.6423C23.3502 19.8459 23.9857 20.1368 24.4578 20.5904C24.93 21.0625 25.2022 21.698 25.2022 22.4059V35.0256C25.2022 35.7155 24.8941 36.4779 24.3668 36.9135C23.9126 37.3312 23.2957 37.5855 22.6416 37.5855H10.0406C8.62477 37.5855 7.46204 36.4234 7.46204 35.0256V22.4065C7.46268 20.9901 8.62477 19.8459 10.0412 19.8459ZM22.6423 22.4065H10.0412V35.0262H22.6423V22.4065Z" fill="#843546"/>
<path d="M29.2336 22.4065C28.5257 22.4065 27.9633 21.8254 27.9633 21.1176C27.9633 20.4097 28.5257 19.8466 29.2336 19.8466H36.4419C37.1498 19.8466 37.7315 20.4097 37.7315 21.1176C37.7315 21.8254 37.1505 22.4065 36.4419 22.4065H29.2336ZM29.2336 28.3624C28.5257 28.3624 27.9633 27.7993 27.9633 27.0914C27.9633 26.3835 28.5257 25.8024 29.2336 25.8024H33.5188C34.2266 25.8024 34.8077 26.3835 34.8077 27.0914C34.8077 27.7993 34.2273 28.3624 33.5188 28.3624H29.2336Z" fill="#843546"/>
<path d="M46.829 19.8459H59.4487C60.8651 19.8459 62.0086 20.9901 62.0086 22.4065V35.0262C62.0086 35.7162 61.6998 36.4785 61.1553 36.9141C60.7011 37.3318 60.1015 37.5861 59.4487 37.5861H46.829C45.4299 37.5861 44.2684 36.424 44.2684 35.0262V22.4065C44.2684 20.9901 45.4299 19.8459 46.829 19.8459ZM59.4487 22.4065H46.829V35.0262H59.4487V22.4065Z" fill="#843546"/>
<path d="M66.0394 22.4065C65.3315 22.4065 64.7505 21.8254 64.7505 21.1176C64.7505 20.4097 65.3309 19.8466 66.0394 19.8466H73.2484C73.9563 19.8466 74.5194 20.4097 74.5194 21.1176C74.5194 21.8254 73.9563 22.4065 73.2484 22.4065H66.0394ZM66.0394 28.3624C65.3315 28.3624 64.7505 27.7993 64.7505 27.0914C64.7505 26.3835 65.3309 25.8024 66.0394 25.8024H70.3246C71.0318 25.8024 71.6141 26.3835 71.6141 27.0914C71.6141 27.7993 71.0325 28.3624 70.3246 28.3624H66.0394Z" fill="#843546"/>
<path d="M10.0412 43.8329H22.6423C24.058 43.8329 25.2028 44.977 25.2028 46.3935V58.9946C25.2028 60.411 24.0587 61.5731 22.6423 61.5731H10.0412C8.62538 61.5731 7.46265 60.411 7.46265 58.9946V46.3935C7.46265 44.977 8.62474 43.8329 10.0412 43.8329ZM10.0412 46.3935V58.9946H22.6423V46.3935H10.0412Z" fill="#843546"/>
<path d="M66.0394 46.3935C65.3315 46.3935 64.7505 45.8118 64.7505 45.1032C64.7505 44.396 65.3309 43.8329 66.0394 43.8329H73.2484C73.9563 43.8329 74.5194 44.396 74.5194 45.1032C74.5194 45.8111 73.9563 46.3935 73.2484 46.3935H66.0394ZM66.0394 52.3487C65.3315 52.3487 64.7505 51.7683 64.7505 51.0604C64.7505 50.3525 65.3309 49.7894 66.0394 49.7894H70.3246C71.0318 49.7894 71.6141 50.3525 71.6141 51.0604C71.6141 51.7677 71.0325 52.3487 70.3246 52.3487H66.0394Z" fill="#843546"/>
<path d="M28.4347 45.6304C27.2726 43.1973 27.6903 40.2742 30.2688 39.0762C32.8115 37.8597 35.4073 39.3485 36.5515 41.7816L41.8725 52.9297C42.2165 52.8573 42.7982 52.7305 43.3613 52.6222C45.5753 52.1494 47.4286 51.7503 50.4979 51.4236C51.6945 51.3147 53.0206 51.5863 54.1469 52.1853C55.2731 52.7484 56.2353 53.6383 56.7433 54.71C59.1399 59.7754 61.5551 64.8242 63.9516 69.8896C65.0593 72.1952 64.0605 74.9743 61.7549 76.0813L50.6068 81.3831C49.7887 81.7649 48.7534 81.9827 47.7368 82C46.4305 82 45.123 81.6733 44.0513 81.1653L31.0504 75.0101C30.996 75.1363 26.3476 72.7404 27.764 68.855C28.7262 66.2214 31.5949 65.6583 34.0646 66.4027L38.9852 67.7826L37.5515 64.8056L35.9717 61.4821L28.4347 45.6304ZM30.7403 44.5401L38.2946 60.3917L39.8737 63.6973L42.4888 69.1984C42.6342 69.4899 42.6701 69.8166 42.5804 70.1254C42.3799 70.8147 41.672 71.2138 41 71.0152L33.3554 68.8544C32.2849 68.5264 30.6321 68.454 30.1599 69.725C29.6878 71.0511 31.0133 72.194 32.0844 72.6847L45.0481 78.8212C45.1032 78.8212 45.485 78.9487 45.4658 78.9487C46.3191 79.2389 47.9905 79.802 49.4972 79.0762L60.6646 73.7744C61.6992 73.2651 62.1361 72.0127 61.6454 70.9787L54.4544 55.8721C54.0918 55.1815 53.6734 54.8183 52.9841 54.4557C52.257 54.0739 51.4588 53.8926 50.7688 53.965C47.8457 54.2725 46.0481 54.6543 43.9052 55.1271C43.5061 55.1995 43.0884 55.2898 42.2351 55.4711C41.164 55.6889 40.0922 55.1636 39.6194 54.1636L34.2446 42.87C33.7186 41.7623 32.611 40.8001 31.3586 41.3812C30.1048 41.9622 30.2323 43.451 30.7403 44.5401Z" fill="#843546"/>
<path d="M46.829 47.4281C46.829 48.136 46.2659 48.717 45.558 48.717C44.8501 48.717 44.2684 48.1366 44.2684 47.4281V46.3935C44.2684 44.977 45.4299 43.8329 46.829 43.8329H59.4487C60.1566 43.8329 60.7927 44.1058 61.2642 44.5767C61.7184 45.0494 62.0086 45.6849 62.0086 46.3935V51.0604C62.0086 51.7677 61.4455 52.3487 60.7376 52.3487C60.0297 52.3487 59.4487 51.7683 59.4487 51.0604V46.3935H46.829V47.4281Z" fill="#843546"/>
</g>
<defs>
<clipPath id="clip0_2_2268">
<rect width="82" height="82" fill="white"/>
</clipPath>
</defs>
</svg>
