<svg width="98" height="98" viewBox="0 0 98 98" fill="none" xmlns="http://www.w3.org/2000/svg">
<g clip-path="url(#clip0_16_2100)">
<path d="M93.0768 94.7353V34.3336C93.0768 33.4321 92.3458 32.7012 91.4443 32.7012H75.1195C74.218 32.7012 73.4871 33.4321 73.4871 34.3336V94.7353H70.2221V57.1883C70.2221 56.2868 69.4912 55.5558 68.5896 55.5558H52.2649C51.3633 55.5558 50.6324 56.2868 50.6324 57.1883V94.7353H47.3674V40.8636C47.3674 39.962 46.6365 39.2311 45.735 39.2311H29.4102C28.5087 39.2311 27.7777 39.962 27.7777 40.8636V94.7353H24.5128V63.7182C24.5128 62.8167 23.7818 62.0857 22.8803 62.0857H6.55554C5.65401 62.0857 4.92306 62.8167 4.92306 63.7182V94.7353H0.0256348V98.0002H97.9742V94.7353H93.0768ZM21.2478 94.7353H8.18802V65.3507H21.2478V94.7353ZM44.1025 94.7353H31.0427V42.496H44.1025V94.7353ZM66.9572 94.7353H53.8974V58.8208H66.9572V94.7353ZM89.8118 94.7353H76.752V35.9661H89.8118V94.7353Z" fill="#843546"/>
<path d="M10.2163 44.4074C11.5516 45.2902 13.1172 45.761 14.718 45.7608C19.2259 45.7605 22.8802 42.106 22.88 37.598C22.88 35.9977 22.4094 34.4326 21.5271 33.0976L33.0818 21.5413C34.4061 22.4276 35.9629 22.9024 37.5564 22.9061C38.0369 22.9063 38.5165 22.8643 38.9897 22.7804C40.5428 22.5082 41.9826 21.7887 43.1329 20.7104L52.8184 28.1561C51.2018 32.3642 53.3026 37.0862 57.5107 38.7027C61.7189 40.3193 66.4408 38.2185 68.0574 34.0104C69.0054 31.5425 68.6995 28.7683 67.2364 26.5661L78.7878 15.0147C82.5582 17.5103 87.6379 16.4768 90.1333 12.7064C92.629 8.93597 91.5954 3.85632 87.825 1.36087C84.0546 -1.13478 78.9749 -0.101215 76.4795 3.66919C74.6662 6.40869 74.6662 9.96688 76.4795 12.7064L64.9281 24.2578C61.6927 22.1192 57.3993 22.5525 54.6566 25.2944C54.6255 25.3254 54.6076 25.3613 54.5782 25.3907L45.0331 18.0544C46.8666 13.936 45.0143 9.11126 40.896 7.27778C36.7777 5.44431 31.9529 7.29656 30.1194 11.4149C28.9855 13.9622 29.2301 16.9122 30.7685 19.2377L19.2188 30.7891C15.4582 28.3031 10.3944 29.3364 7.90836 33.097C5.4225 36.8576 6.45566 41.9214 10.2163 44.4074ZM83.282 3.31637C85.9868 3.31637 88.1795 5.50899 88.1795 8.2138C88.1795 10.9186 85.9868 13.1112 83.282 13.1112C80.5772 13.1112 78.3846 10.9186 78.3846 8.2138C78.3846 5.50899 80.5772 3.31637 83.282 3.31637ZM56.9626 27.6066C57.8813 26.6873 59.1277 26.1708 60.4274 26.171C63.1322 26.1706 65.325 28.363 65.3254 31.0679C65.3256 32.3675 64.8091 33.6139 63.8898 34.5326C61.9513 36.3803 58.9034 36.3803 56.9649 34.5326C55.0516 32.6205 55.0508 29.5197 56.9626 27.6066ZM33.5613 11.9348L33.5617 11.9342C34.3041 10.8678 35.4419 10.1424 36.7222 9.91974C37.0064 9.87097 37.2942 9.84648 37.5825 9.84628C38.5846 9.8473 39.5621 10.1569 40.3822 10.7327C42.5977 12.2844 43.136 15.3381 41.5843 17.5536C40.0326 19.7691 36.9789 20.3072 34.7634 18.7557C32.5479 17.2041 32.0096 14.1503 33.5613 11.9348ZM11.2533 34.1365C11.2541 34.1357 11.2547 34.1351 11.2555 34.1343C13.1688 32.222 16.2699 32.2226 18.1821 34.1359C20.0944 36.0492 20.0938 39.1502 18.1805 41.0625C16.2419 42.9102 13.1941 42.9102 11.2555 41.0625C9.34228 39.1504 9.34147 36.0496 11.2533 34.1365Z" fill="#843546"/>
</g>
<defs>
<clipPath id="clip0_16_2100">
<rect width="98" height="98" fill="white"/>
</clipPath>
</defs>
</svg>
